<svg width="640" height="480" xmlns="http://www.w3.org/2000/svg">

 <g>
  <title>background</title>
  <rect fill="none" id="canvas_background" height="482" width="642" y="-1" x="-1"/>
 </g>
 <g>
  <title>Layer 1</title>
  <g stroke="null" id="layer1">
   <path fill="#010712" fill-rule="evenodd" stroke-width="10" stroke-linecap="round" stroke-miterlimit="4" id="path4403" d="m81.984796,176.039974c-20.809906,0.015762 -43.0474,8.156182 -66.525942,25.735484c-2.650294,1.929782 -4.069538,5.15137 -3.692729,8.408062c0.37679,3.256692 2.489749,6.05504 5.510688,7.328647c3.020957,1.273589 6.495132,0.810919 9.089796,-1.193036c22.686185,-16.98601 41.772447,-22.861672 58.799614,-21.985943c17.027169,0.875729 32.828125,8.601764 48.40316,21.645076c2.455976,2.319933 6.007686,3.084404 9.20342,1.988392c3.195717,-1.096011 5.506816,-3.876088 6.021985,-7.215025c0.515194,-3.338936 -0.86235,-6.683854 -3.5791,-8.692117c-17.513326,-14.666531 -37.09102,-24.774802 -59.08367,-25.905918c-1.37454,-0.070701 -2.759904,-0.114677 -4.14722,-0.113622zm323.028603,0c-20.809939,0.015762 -43.047402,8.156182 -66.525939,25.735484c-2.650278,1.929782 -4.069536,5.15137 -3.692731,8.408062c0.376805,3.256692 2.489754,6.05504 5.510689,7.328647c3.020976,1.273589 6.495135,0.810919 9.089797,-1.193036c22.686201,-16.98601 41.772442,-22.861672 58.79961,-21.985943c17.027136,0.875729 32.828125,8.601764 48.403168,21.645076c2.455934,2.319933 6.007678,3.084404 9.203411,1.988392c3.195684,-1.096011 5.506816,-3.876088 6.021994,-7.215025c0.515153,-3.338936 -0.86235,-6.683854 -3.579109,-8.692117c-17.513359,-14.666531 -37.09102,-24.774802 -59.08367,-25.905918c-1.374582,-0.070701 -2.759896,-0.114677 -4.14722,-0.113622zm-104.759894,3.635918c-3.311085,0.139711 -6.308702,2.088253 -7.783136,5.056199l-49.937066,92.88635l-49.937066,-92.88635c-1.570911,-3.063807 -4.737923,-4.977209 -8.18081,-4.942577c-3.206665,0.034505 -6.174557,1.770674 -7.783144,4.544898c-1.608603,2.774224 -1.619849,6.176044 -0.056807,8.976173l57.947447,107.770895c1.583497,2.951078 4.661322,4.772139 8.010381,4.772139c3.349067,-0.000017 6.426883,-1.821061 8.010381,-4.772139l57.947447,-107.770895c1.652833,-2.872412 1.605566,-6.427031 -0.113622,-9.260229c-1.719189,-2.833199 -4.812951,-4.514156 -8.124003,-4.374464zm264.967542,0.227246c-3.274999,0.089552 -6.248452,1.934417 -7.783136,4.828954l-57.947447,107.770896c-1.652833,2.872409 -1.605566,6.427032 0.113622,9.260227c1.719239,2.833178 4.812951,4.514153 8.124003,4.374465c3.311027,-0.139672 6.308702,-2.088257 7.783136,-5.056199l49.937066,-92.886354l49.937066,92.886354c1.474434,2.967943 4.472067,4.916511 7.783136,5.056199c3.311085,0.139713 6.404814,-1.541262 8.124003,-4.374465c1.719139,-2.833219 1.766455,-6.387818 0.113622,-9.260227l-57.947447,-107.770896c-1.611384,-3.038264 -4.799372,-4.90709 -8.237626,-4.828954zm-546.126276,52.152702c-3.278107,-0.046358 -6.300992,1.656651 -7.953571,4.488086c-1.652598,2.831432 -1.652579,6.371965 0,9.203422c1.652561,2.831448 4.675464,4.534443 7.953571,4.488088l65.673776,0c3.278102,0.046356 6.300989,-1.656656 7.953565,-4.488088c1.652601,-2.83144 1.652584,-6.371965 0,-9.203422c-1.65256,-2.831453 -4.675464,-4.534444 -7.953565,-4.488086l-65.673776,0zm383.19169,0c-3.27811,-0.046358 -6.300956,1.656651 -7.953574,4.488086c-1.652593,2.831432 -1.652543,6.371965 0,9.203422c1.65256,2.831448 4.675505,4.534443 7.953574,4.488088l51.243719,0l0.511305,18.179586c-14.745015,11.774797 -29.75572,18.772308 -45.846661,19.599878c-17.027169,0.87573 -36.113409,-4.999955 -58.79961,-21.985948c-1.688994,-1.297824 -3.780081,-1.961345 -5.908371,-1.874773c-3.860959,0.157438 -7.225624,2.723056 -8.351248,6.419668c-1.125624,3.69662 0.233881,7.716258 3.351864,9.998785c25.043789,18.751232 48.680468,26.696166 70.67316,25.565048c21.992651,-1.131118 41.570311,-11.182572 59.08367,-25.849108c2.120322,-1.766951 3.248403,-4.307439 3.295049,-6.874157c0.046687,-2.566727 0.004766,-30.684931 0,-32.268776c-0.004725,-1.583847 0.139788,-3.194122 -0.681734,-4.601712c-1.652576,-2.831453 -4.67548,-4.534444 -7.953565,-4.488086l-60.617577,0zm162.707341,21.474644c-6.715776,0 -12.214417,5.498632 -12.214417,12.214417c0,6.715776 5.498641,12.157601 12.214417,12.157601c6.715776,0 12.157601,-5.441825 12.157601,-12.157601c0,-6.715784 -5.441825,-12.214417 -12.157601,-12.214417zm-544.535562,10.623695c-3.860963,0.157438 -7.225642,2.723056 -8.35125,6.419668c-1.125626,3.69662 0.233862,7.716258 3.351862,9.998785c25.043786,18.751232 48.680509,26.696166 70.673162,25.565048c21.992651,-1.131118 41.570344,-11.182572 59.08367,-25.849108c3.85923,-3.21604 4.409054,-8.980081 1.193031,-12.839335c-3.21604,-3.859238 -8.980097,-4.352272 -12.839335,-1.136224c-15.575035,13.043311 -31.375991,20.826158 -48.40316,21.701888c-17.027167,0.87573 -36.113429,-4.999955 -58.799614,-21.985948c-1.688993,-1.297824 -3.7801,-1.961345 -5.908367,-1.874773z"/>
  </g>
 </g>
</svg>