<svg width="640" height="480" xmlns="http://www.w3.org/2000/svg" xmlns:xlink="http://www.w3.org/1999/xlink" stroke="null" style="vector-effect: non-scaling-stroke;">
 <metadata stroke="null" style="vector-effect: non-scaling-stroke;" id="metadata49">image/svg+xml</metadata>
 <defs stroke="null" style="vector-effect: non-scaling-stroke;">
  <defs stroke="null" style="vector-effect: non-scaling-stroke;">
   <rect stroke="null" style="vector-effect: non-scaling-stroke;" id="SVGID_1_" x="-76" y="-347" width="612" height="792"/>
  </defs>
  <clipPath stroke="null" style="vector-effect: non-scaling-stroke;" id="SVGID_2_">
   <use stroke="null" style="vector-effect: non-scaling-stroke;" height="90" width="264" y="272.089962" x="-27.078476" xlink:href="#SVGID_1_" id="use9"/>
  </clipPath>
 </defs>
 <g stroke="null">
  <title stroke="null">background</title>
  <rect stroke="null" fill="none" id="canvas_background" height="482" width="642" y="-1" x="-1"/>
 </g>
 <g stroke="null">
  <title stroke="null">Layer 1</title>
  <g stroke="null" id="svg_1">
   <path stroke="null" fill="#010712" clip-path="url(#SVGID_2_)" d="m198.447267,135.006782c-34.420948,-1.675142 -74.712948,20.979544 -87.389263,28.727076c20.27083,23.806346 26.206309,74.793484 27.849237,96.103224c36.216894,-36.643733 63.880899,-38.592697 81.518213,-34.316252c-0.571803,-16.574242 -3.20532,-59.854115 -15.648082,-89.32212c-2.037553,-0.684553 -4.13148,-1.087232 -6.330104,-1.191928" id="path25"/>
   <path stroke="null" fill="#010712" clip-path="url(#SVGID_2_)" d="m187.599111,261.447795c-47.145586,11.516602 -73.690145,28.042523 -80.600106,32.810235c1.256357,9.140799 1.892588,18.772866 1.892588,28.775398c0,52.074369 -14.842725,111.662717 -21.970133,137.240848c32.359235,-25.698935 61.352079,-44.552337 86.712764,-56.383028c9.140799,-40.187303 19.046688,-97.778366 13.964886,-142.443453" id="path27"/>
   <path stroke="null" fill="#010712" clip-path="url(#SVGID_2_)" d="m381.34379,389.531737c9.688442,-12.652155 16.356796,-26.166042 20.810419,-39.945696c-12.571619,3.712695 -26.979452,9.543478 -43.569801,18.19301c12.70853,5.95964 19.409098,15.301779 22.759382,21.752686" id="path29"/>
   <path stroke="null" fill="#010712" clip-path="url(#SVGID_2_)" d="m298.843042,84.857216c-38.520214,-2.569088 -83.934283,21.156722 -97.601187,28.928415c3.632159,4.526105 6.813318,9.905888 9.575692,15.825261c0.982535,2.093928 1.924803,4.268391 2.802642,6.491176c1.03891,2.705999 2.029499,5.452265 2.939552,8.287121c9.124692,28.115005 11.548816,61.939989 12.152834,78.280678c3.181159,-3.036195 6.305944,-5.822729 9.462942,-8.48846c1.344946,-1.111392 2.657677,-2.222785 3.954302,-3.285856c1.320785,-1.03891 2.601302,-2.037553 3.897927,-3.044249c24.466739,-18.587634 47.612692,-25.876113 69.139879,-21.809061c-0.249661,-12.724637 -2.174463,-65.048667 -16.324582,-101.185025" id="path31"/>
   <path stroke="null" fill="#010712" clip-path="url(#SVGID_2_)" d="m276.317213,221.856456c-10.944799,2.947606 -20.754044,6.088497 -29.476058,9.253549c-1.433535,0.515428 -2.842909,1.046964 -4.220069,1.578499c-2.633517,0.982535 -5.138176,1.973124 -7.578407,2.955659c-1.747624,0.724821 -3.463034,1.433535 -5.097908,2.142249c-2.995927,1.272464 -5.742194,2.552981 -8.367657,3.752963l-0.990589,0.483214c-4.969051,2.351642 -9.181067,4.566373 -12.748798,6.547551c-4.69523,2.593249 -8.198532,4.751605 -10.574334,6.313997c-0.765089,0.515428 -1.457696,0.974482 -1.989231,1.361053c0.144964,1.095285 0.265768,2.222785 0.394625,3.342231c1.15166,9.213281 1.731517,18.845348 1.731517,28.831772c0,37.811501 -7.046872,79.214892 -14.142065,111.243931c-0.362411,1.642928 -0.732875,3.277802 -1.095285,4.872408c-0.394625,1.723463 -0.805357,3.43082 -1.167767,5.097908c-3.148945,13.27228 -6.112658,24.474792 -8.319335,32.399503c32.616949,-26.013024 61.988311,-45.695943 87.96912,-59.016544c10.389102,-45.204676 21.809061,-110.800985 15.672243,-161.159944" id="path33"/>
   <path stroke="null" fill="#010712" clip-path="url(#SVGID_2_)" d="m323.019852,196.600468c-1.691249,0.724821 6.475068,-2.697945 6.475068,-2.697945" id="path35"/>
   <path stroke="null" fill="#010712" clip-path="url(#SVGID_2_)" d="m430.953767,44.516895c-7.441497,-12.249477 -16.767528,-18.917831 -27.696219,-19.81983c-43.674498,-3.664373 -95.926045,23.975471 -110.712396,32.375342c4.622748,5.605283 8.560943,12.458869 11.927334,20.029223c0.644285,1.570446 1.352999,3.173106 2.013392,4.816034c0.660393,1.675142 1.288571,3.390552 1.908696,5.122069c7.513979,21.19699 11.299156,45.985872 13.223958,65.829863c1.01475,10.590442 1.48991,19.771509 1.731517,26.206309l2.126142,-1.989231c1.441589,-1.336892 2.859017,-2.673784 4.260337,-3.922087c61.368186,-55.263582 99.139419,-34.726984 115.923054,-25.594238c1.103339,0.628178 2.367749,1.296624 3.398606,1.820106c0.451,-3.060356 0.805357,-8.57705 0.805357,-15.696404c0,-23.468096 -3.640213,-64.122506 -18.909777,-89.177156" id="path37"/>
   <path stroke="null" fill="#010712" clip-path="url(#SVGID_2_)" d="m323.019852,196.600468c-9.100532,3.90598 -16.638671,7.634782 -22.646632,10.904531c-4.993212,2.705999 -8.955567,5.065694 -11.854852,6.901908c-1.908696,1.224142 -3.422766,2.230838 -4.461677,2.947606c0.128857,0.805357 0.193286,1.634874 0.322143,2.456338c1.352999,10.670977 2.101981,21.913758 2.101981,33.535056c0,42.490623 -8.053568,89.080513 -16.042707,124.902782c-0.402678,1.795946 -0.781196,3.567731 -1.183874,5.299248c-0.394625,1.795946 -0.837571,3.503302 -1.208035,5.218712c-3.583838,15.172922 -6.990497,27.881451 -9.462942,36.563198c29.516326,-23.532525 55.295796,-41.322856 77.918268,-54.587082c2.029499,-1.175821 4.042891,-2.367749 6.056283,-3.495248c1.884535,-1.071125 3.744909,-2.126142 5.565015,-3.140891c22.058722,-12.023977 40.791321,-19.473527 56.640742,-23.685543c1.642928,-0.442946 3.269748,-0.837571 4.824087,-1.191928c1.457696,-0.346303 2.899284,-0.668446 4.324766,-0.934214c19.417152,-3.90598 34.066592,-2.633517 44.930854,0.885892c19.054741,6.209301 28.268023,19.159438 32.447824,27.374077c23.92715,-31.1512 31.787432,-66.957362 31.787432,-100.001151c0,-50.205941 -17.62926,-93.872386 -22.268115,-104.519202c-78.812214,1.497964 -135.493224,17.339331 -171.315493,31.867968" id="path39"/>
  </g>
 </g>
</svg>