<svg width="640" height="480" xmlns="http://www.w3.org/2000/svg">
 <metadata id="metadata2333">image/svg+xml</metadata>

 <g>
  <title>background</title>
  <rect fill="none" id="canvas_background" height="482" width="642" y="-1" x="-1"/>
 </g>
 <g>
  <title>Layer 1</title>
  <text font-size="14.035301px" font-style="normal" font-weight="normal" text-anchor="start" fill="#010712" stroke-width="1px" font-family="Arial" transform="matrix(1.4864748252906,0,0,1.454893850543023,152.7027077878229,74.19210056785047) " id="text2177" y="55.85825" x="244.26051" xml:space="preserve">
   <tspan y="55.85825" x="244.26051" id="tspan2179">®</tspan>
  </text>
  <g stroke="null" id="svg_2">
   <path stroke="null" fill="#010712" id="path10" d="m135.097087,196.012401l-31.057196,0l0,90.742803c0,16.323339 7.794017,30.510043 31.057196,32.758889"/>
   <rect stroke="null" fill="#010712" id="rect12" height="29.554938" width="31.057196" y="149.45998" x="104.039889"/>
   <path stroke="null" fill="#010712" id="path14" d="m321.209705,318.053631c-25.181455,0 -35.797553,-17.565607 -35.797553,-34.901711l0,-120.51902l30.718013,0l0,33.3795l23.262153,0l0,24.993458l-23.262153,0l0,60.288325c0,7.090258 3.387712,10.978648 10.725728,10.978648l12.536425,0l0,25.7808l-18.182612,0"/>
   <path stroke="null" fill="#010712" id="path16" d="m402.861392,219.487766c-10.500302,0 -18.629407,5.458957 -22.019168,12.834311c-2.032025,4.44518 -2.711416,7.824093 -3.046491,13.287166l47.544917,0c-0.678366,-13.343773 -6.667844,-26.121477 -22.479259,-26.121477m-25.065659,47.173042c0,15.819036 9.93259,27.465621 27.325158,27.465621c13.667711,0 20.443156,-3.827643 28.348864,-11.645561l18.973701,18.293266c-12.197232,12.042857 -24.958058,19.362618 -47.544917,19.362618c-29.474004,0 -57.710165,-16.155586 -57.710165,-63.217466c0,-40.246423 24.618885,-62.986927 57.031799,-62.986927c32.863765,0 51.720646,26.624762 51.720646,61.583078l0,11.146396l-78.145085,0"/>
   <path stroke="null" fill="#010712" id="path18" d="m218.781822,221.005859c9.032908,0 12.760838,4.448267 12.760838,11.709378l0,85.506147l30.83174,0l0,-85.618331c0,-17.394762 -9.261415,-36.591681 -36.251498,-36.591681l-63.58178,0l0,122.208987l30.718013,0l0,-97.215531"/>
   <path stroke="null" fill="#010712" id="path6" d="m613.601079,165.133707c-28.233068,-137.624531 -294.535098,-146.340162 -466.195062,-41.488418l0,11.580408c171.434538,-88.490534 414.691647,-87.926212 436.827635,38.847724c7.458933,41.99723 -16.033787,85.676108 -58.156939,110.808475l0,32.889968c50.707225,-18.605149 102.539589,-78.822038 87.524366,-152.638157m-312.152067,240.959103c-118.466788,10.964675 -241.90346,-6.293904 -259.184329,-99.229115c-8.582025,-45.762452 12.309955,-94.333155 39.867733,-124.468331l0,-16.13507c-49.691718,43.738507 -76.683852,99.061525 -61.098893,164.384055c19.875456,83.825876 125.807874,131.275137 287.531132,115.476199c64.032669,-6.181837 147.832178,-26.871562 205.989096,-58.967983l0,-45.600067c-52.851952,31.650323 -140.264619,57.799286 -213.104739,64.540312z"/>
   <path stroke="null" fill="#010712" id="path8" d="m505.065886,145.238138l-31.055157,0l0,138.931669c0,16.317172 7.794009,30.509018 31.055157,32.758889"/>
  </g>
 </g>
</svg>